<svg xmlns="http://www.w3.org/2000/svg" width="29.261" height="34.738" viewBox="0 0 29.261 34.738">
  <path id="path4" d="M28.647,27.072A18.886,18.886,0,0,1,26.78,30.43a17.061,17.061,0,0,1-2.406,2.908A4.667,4.667,0,0,1,21.282,34.7a7.75,7.75,0,0,1-2.856-.682,8.2,8.2,0,0,0-3.075-.68,8.473,8.473,0,0,0-3.162.68,8.508,8.508,0,0,1-2.732.718,4.394,4.394,0,0,1-3.162-1.4,17.915,17.915,0,0,1-2.516-3.011,20.822,20.822,0,0,1-2.661-5.286A19.354,19.354,0,0,1,0,18.742a11.5,11.5,0,0,1,1.511-6.019,8.862,8.862,0,0,1,3.164-3.2A8.511,8.511,0,0,1,8.952,8.316a10.072,10.072,0,0,1,3.308.77,10.636,10.636,0,0,0,2.624.772,15.7,15.7,0,0,0,2.91-.909,9.618,9.618,0,0,1,3.955-.7,8.4,8.4,0,0,1,6.579,3.464,7.318,7.318,0,0,0-3.881,6.648,7.334,7.334,0,0,0,2.408,5.526,7.913,7.913,0,0,0,2.406,1.578q-.289.839-.613,1.61ZM21.944.695a7.411,7.411,0,0,1-1.9,4.861,6.473,6.473,0,0,1-5.376,2.654,5.409,5.409,0,0,1-.04-.658,7.614,7.614,0,0,1,2.015-4.912A7.76,7.76,0,0,1,19.1.8,7.321,7.321,0,0,1,21.908,0a6.309,6.309,0,0,1,.036.695Z" fill="#fff"/>
</svg>
