<svg xmlns="http://www.w3.org/2000/svg" xmlns:xlink="http://www.w3.org/1999/xlink" width="36.024" height="41.08" viewBox="0 0 36.024 41.08">
  <defs>
    <filter id="Path_181" x="3.673" y="0" width="28.407" height="28.407" filterUnits="userSpaceOnUse">
      <feOffset dy="3" input="SourceAlpha"/>
      <feGaussianBlur stdDeviation="3" result="blur"/>
      <feFlood flood-opacity="0.161"/>
      <feComposite operator="in" in2="blur"/>
      <feComposite in="SourceGraphic"/>
    </filter>
    <filter id="Path_182" x="0" y="11.912" width="36.024" height="29.168" filterUnits="userSpaceOnUse">
      <feOffset dy="3" input="SourceAlpha"/>
      <feGaussianBlur stdDeviation="3" result="blur-2"/>
      <feFlood flood-opacity="0.161"/>
      <feComposite operator="in" in2="blur-2"/>
      <feComposite in="SourceGraphic"/>
    </filter>
  </defs>
  <g id="Group_311" data-name="Group 311" transform="translate(9 6)">
    <g transform="matrix(1, 0, 0, 1, -9, -6)" filter="url(#Path_181)">
      <path id="Path_181-2" data-name="Path 181" d="M11.756,10.407a5.035,5.035,0,0,0,3.679-1.524A5.035,5.035,0,0,0,16.96,5.2a5.036,5.036,0,0,0-1.524-3.679A5.036,5.036,0,0,0,11.756,0,5.035,5.035,0,0,0,8.077,1.524,5.035,5.035,0,0,0,6.553,5.2,5.034,5.034,0,0,0,8.077,8.882,5.036,5.036,0,0,0,11.756,10.407Z" transform="translate(6.12 6)" fill="#fff"/>
    </g>
    <g transform="matrix(1, 0, 0, 1, -9, -6)" filter="url(#Path_182)">
      <path id="Path_182-2" data-name="Path 182" d="M20.113,18.736a12.858,12.858,0,0,0-.175-1.365A10.744,10.744,0,0,0,19.6,16a6.776,6.776,0,0,0-.564-1.28,4.827,4.827,0,0,0-.851-1.109,3.751,3.751,0,0,0-1.222-.768,4.224,4.224,0,0,0-1.56-.282,1.583,1.583,0,0,0-.846.359c-.254.165-.55.356-.881.568a5.046,5.046,0,0,1-1.14.5,4.426,4.426,0,0,1-2.788,0,5.033,5.033,0,0,1-1.139-.5c-.328-.209-.625-.4-.882-.568a1.581,1.581,0,0,0-.845-.359,4.219,4.219,0,0,0-1.56.283A3.748,3.748,0,0,0,4.1,13.61a4.829,4.829,0,0,0-.85,1.109A6.791,6.791,0,0,0,2.687,16a10.779,10.779,0,0,0-.336,1.372,12.806,12.806,0,0,0-.175,1.366c-.029.413-.043.842-.043,1.276A3.587,3.587,0,0,0,3.2,22.726a3.835,3.835,0,0,0,2.745,1h10.4a3.835,3.835,0,0,0,2.745-1,3.585,3.585,0,0,0,1.066-2.714C20.157,19.577,20.142,19.147,20.113,18.736Z" transform="translate(6.87 5.35)" fill="#fff"/>
    </g>
  </g>
</svg>
