<svg xmlns="http://www.w3.org/2000/svg" xmlns:xlink="http://www.w3.org/1999/xlink" width="38" height="38" viewBox="0 0 38 38">
  <defs>
    <filter id="Path_192" x="0" y="0" width="27" height="29.748" filterUnits="userSpaceOnUse">
      <feOffset dy="3" input="SourceAlpha"/>
      <feGaussianBlur stdDeviation="3" result="blur"/>
      <feFlood flood-opacity="0.161"/>
      <feComposite operator="in" in2="blur"/>
      <feComposite in="SourceGraphic"/>
    </filter>
    <filter id="Rectangle_1525" x="11" y="9" width="27" height="29" filterUnits="userSpaceOnUse">
      <feOffset dy="3" input="SourceAlpha"/>
      <feGaussianBlur stdDeviation="3" result="blur-2"/>
      <feFlood flood-opacity="0.161"/>
      <feComposite operator="in" in2="blur-2"/>
      <feComposite in="SourceGraphic"/>
    </filter>
    <filter id="Rectangle_1526" x="11" y="0" width="27" height="25" filterUnits="userSpaceOnUse">
      <feOffset dy="3" input="SourceAlpha"/>
      <feGaussianBlur stdDeviation="3" result="blur-3"/>
      <feFlood flood-opacity="0.161"/>
      <feComposite operator="in" in2="blur-3"/>
      <feComposite in="SourceGraphic"/>
    </filter>
    <filter id="Rectangle_1527" x="0" y="14" width="27" height="24" filterUnits="userSpaceOnUse">
      <feOffset dy="3" input="SourceAlpha"/>
      <feGaussianBlur stdDeviation="3" result="blur-4"/>
      <feFlood flood-opacity="0.161"/>
      <feComposite operator="in" in2="blur-4"/>
      <feComposite in="SourceGraphic"/>
    </filter>
  </defs>
  <g id="Component_4_39" data-name="Component 4 – 39" transform="translate(9 6)">
    <g transform="matrix(1, 0, 0, 1, -9, -6)" filter="url(#Path_192)">
      <path id="Path_192-2" data-name="Path 192" d="M0,0H9V11.748H0Z" transform="translate(9 6)" fill="#00ffe5"/>
    </g>
    <g transform="matrix(1, 0, 0, 1, -9, -6)" filter="url(#Rectangle_1525)">
      <rect id="Rectangle_1525-2" data-name="Rectangle 1525" width="9" height="11" transform="translate(20 15)" fill="#00ffe5"/>
    </g>
    <g transform="matrix(1, 0, 0, 1, -9, -6)" filter="url(#Rectangle_1526)">
      <rect id="Rectangle_1526-2" data-name="Rectangle 1526" width="9" height="7" transform="translate(20 6)" fill="#00ffe5"/>
    </g>
    <g transform="matrix(1, 0, 0, 1, -9, -6)" filter="url(#Rectangle_1527)">
      <rect id="Rectangle_1527-2" data-name="Rectangle 1527" width="9" height="6" transform="translate(9 20)" fill="#00ffe5"/>
    </g>
  </g>
</svg>
