<svg xmlns="http://www.w3.org/2000/svg" xmlns:xlink="http://www.w3.org/1999/xlink" width="35" height="34" viewBox="0 0 35 34">
  <defs>
    <clipPath id="clip-path">
      <rect id="Rectangle_2252" data-name="Rectangle 2252" width="35" height="34" transform="translate(-0.472 0.195)" fill="#fff"/>
    </clipPath>
  </defs>
  <g id="Group_427" data-name="Group 427" transform="translate(0.472 -0.195)" clip-path="url(#clip-path)">
    <path id="Path_219" data-name="Path 219" d="M33.571,8.214h2.46v.615h-2.46Z" transform="translate(-4.663 -1.141)" fill="#f2f2f2"/>
    <path id="Path_220" data-name="Path 220" d="M32.6,9.663H25.833a.616.616,0,0,1-.534-.308L23.548,6.29a1.851,1.851,0,0,0-1.6-.933H12.5a1.851,1.851,0,0,0-1.6.93L9.145,9.355a.615.615,0,0,1-.534.308H1.845A1.845,1.845,0,0,0,0,11.508V28.73a1.845,1.845,0,0,0,1.845,1.845H32.6a1.845,1.845,0,0,0,1.845-1.845V11.508A1.845,1.845,0,0,0,32.6,9.663ZM25.843,22.181A9.226,9.226,0,0,1,8.038,19.717l-1.6,1.6a.615.615,0,0,1-.869-.869l2.61-2.61a.615.615,0,0,1,.87,0l2.61,2.61a.615.615,0,1,1-.87.869l-1.5-1.5A8,8,0,0,0,24.7,21.742a.615.615,0,1,1,1.149.439Zm3.035-4.852-2.61,2.61a.615.615,0,0,1-.87,0l-2.61-2.61a.615.615,0,1,1,.87-.87l1.5,1.5a8,8,0,0,0-15.419-1.9.615.615,0,1,1-1.151-.435A9.226,9.226,0,0,1,26.407,18.06l1.6-1.6a.615.615,0,1,1,.869.87Z" transform="translate(0 -0.744)" fill="#f2f2f2"/>
    <path id="Path_221" data-name="Path 221" d="M3.571,7.5h3.69V8.73H3.571Z" transform="translate(-0.496 -1.042)" fill="#f2f2f2"/>
  </g>
</svg>
