<svg id="Group_430" data-name="Group 430" xmlns="http://www.w3.org/2000/svg" width="20.631" height="20.631" viewBox="0 0 20.631 20.631">
  <path id="Path_224" data-name="Path 224" d="M11.8,17.315a1.067,1.067,0,0,0,1.509,0l4.024-4.024a1.067,1.067,0,0,0-1.509-1.509l-2.2,2.2V2.333a1.067,1.067,0,1,0-2.134,0V13.984l-2.2-2.2a1.067,1.067,0,1,0-1.509,1.509Z" transform="translate(-2.238 -1.266)" fill="#f2f2f2"/>
  <path id="Path_225" data-name="Path 225" d="M20.829,12.234A1.067,1.067,0,0,0,19.762,13.3v8.181H3.4V13.3a1.067,1.067,0,0,0-2.134,0v8.537a1.778,1.778,0,0,0,1.778,1.779H20.118A1.778,1.778,0,0,0,21.9,21.838V13.3a1.067,1.067,0,0,0-1.067-1.067Z" transform="translate(-1.266 -2.986)" fill="#f2f2f2"/>
</svg>
