<svg xmlns="http://www.w3.org/2000/svg" width="34" height="34.738" viewBox="0 0 34 34.738">
  <g id="Google__G__Logo" transform="translate(26.754 -39.239)">
    <path id="Path_186" data-name="Path 186" d="M1.877,52.525A20.124,20.124,0,0,0,1.6,49.239H-14.754v6.528h9.365a8.064,8.064,0,0,1-3.474,5.182v4.342h5.587A16.983,16.983,0,0,0,1.877,52.525Z" transform="translate(5.369 4.474)" fill="#4285f4"/>
    <path id="Path_187" data-name="Path 187" d="M-9.962,67.584A16.545,16.545,0,0,0,1.516,63.372l-5.587-4.342a10.478,10.478,0,0,1-5.891,1.679A10.373,10.373,0,0,1-19.7,53.529h-5.761V58A17.343,17.343,0,0,0-9.962,67.584Z" transform="translate(0.577 6.394)" fill="#34a853"/>
    <path id="Path_188" data-name="Path 188" d="M-19.126,56.961a10.079,10.079,0,0,1-.55-3.315,10.471,10.471,0,0,1,.55-3.315V45.859h-5.761a17.168,17.168,0,0,0-1.867,7.787,17.168,17.168,0,0,0,1.867,7.787Z" transform="translate(0 2.962)" fill="#fbbc05"/>
    <path id="Path_189" data-name="Path 189" d="M-9.962,46.114A9.424,9.424,0,0,1-3.3,48.72l4.95-4.95a16.606,16.606,0,0,0-11.608-4.53,17.343,17.343,0,0,0-15.5,9.582l5.761,4.473A10.373,10.373,0,0,1-9.962,46.114Z" transform="translate(0.577)" fill="#ea4335"/>
  </g>
</svg>
