<svg xmlns="http://www.w3.org/2000/svg" width="87.534" height="77.206" viewBox="0 0 87.534 77.206">
  <path id="Path_196" data-name="Path 196" d="M47.1,14.441C54.8,5.428,69.058,1.753,80.608,9.628A23.924,23.924,0,0,1,90.846,28.354c.569,16.975-14.438,30.581-37.407,51.407l-.481.438a8.732,8.732,0,0,1-11.769.044l-.438-.394-.264-.24C17.667,58.874,2.735,45.307,3.345,28.4A23.939,23.939,0,0,1,13.583,9.628C25.133,1.71,39.4,5.428,47.1,14.441Zm0,59.326.438-.438C68.358,54.473,82.1,42,82.1,29.36A14.953,14.953,0,0,0,66.783,14.047c-6.737,0-13.3,4.331-15.575,10.325H43.026c-2.319-5.994-8.881-10.325-15.619-10.325A14.952,14.952,0,0,0,12.095,29.36c0,12.644,13.737,25.113,34.563,43.969Z" transform="translate(-3.327 -5.294)" fill="#ff3434" fill-rule="evenodd"/>
</svg>
