<svg xmlns="http://www.w3.org/2000/svg" xmlns:xlink="http://www.w3.org/1999/xlink" width="44.083" height="43.53" viewBox="0 0 44.083 43.53">
  <defs>
    <filter id="Path_67" x="8.705" y="0" width="35.378" height="43.53" filterUnits="userSpaceOnUse">
      <feOffset dy="3" input="SourceAlpha"/>
      <feGaussianBlur stdDeviation="3" result="blur"/>
      <feFlood flood-opacity="0.659"/>
      <feComposite operator="in" in2="blur"/>
      <feComposite in="SourceGraphic"/>
    </filter>
    <filter id="Path_68" x="0" y="8.13" width="24.519" height="34.312" filterUnits="userSpaceOnUse">
      <feOffset dy="3" input="SourceAlpha"/>
      <feGaussianBlur stdDeviation="3" result="blur-2"/>
      <feFlood flood-opacity="0.659"/>
      <feComposite operator="in" in2="blur-2"/>
      <feComposite in="SourceGraphic"/>
    </filter>
  </defs>
  <g id="PngItem_2973625" transform="translate(9 6)">
    <g transform="matrix(1, 0, 0, 1, -9, -6)" filter="url(#Path_67)">
      <path id="Path_67-2" data-name="Path 67" d="M333.969-959.5a1.413,1.413,0,0,0-.184.269c-.085.144-1.373,2.209-2.863,4.6s-2.759,4.433-2.818,4.55a1.366,1.366,0,0,1-.3.4,2.277,2.277,0,0,0-.649,1.181c-.021.12-.027,1.682-.021,5.386l.008,5.216.061.186a2.211,2.211,0,0,0,1.919,1.546c.13.011,1.74.4,4.553,1.1l4.351,1.086.194-.024a2.183,2.183,0,0,0,1.3-.623,2.2,2.2,0,0,0,.636-1.386c.016-.154.378-1.176,2.187-6.147l2.169-5.961-.016-.186a2.186,2.186,0,0,0-1.307-1.8c-.42-.176-.016-.162-4.9-.178l-4.425-.013-.091-.2a1.37,1.37,0,0,1-.168-.671l.011-.162,1.144-1.716a17.131,17.131,0,0,0,1.256-1.988,4.214,4.214,0,0,0,.333-1.591,1.758,1.758,0,0,0-.154-.841,14.4,14.4,0,0,0-1.6-1.591,3.894,3.894,0,0,1-.341-.261C334.027-959.509,334.014-959.517,333.969-959.5Z" transform="translate(-309.42 965.51)" fill="#fff"/>
    </g>
    <g transform="matrix(1, 0, 0, 1, -9, -6)" filter="url(#Path_68)">
      <path id="Path_68-2" data-name="Path 68" d="M0-645.844v8.156H6.519V-654H0Zm3.465,4.912a1.131,1.131,0,0,1,.774.607.745.745,0,0,1,.085.455.763.763,0,0,1-.085.458,1.087,1.087,0,0,1-.814.615,1.085,1.085,0,0,1-1.144-.615.763.763,0,0,1-.085-.458.734.734,0,0,1,.088-.458,1.114,1.114,0,0,1,.737-.6A.839.839,0,0,1,3.465-640.932Z" transform="translate(9 668.13)" fill="#fff"/>
    </g>
  </g>
</svg>

