<svg xmlns="http://www.w3.org/2000/svg" xmlns:xlink="http://www.w3.org/1999/xlink" width="34.57" height="34.218" viewBox="0 0 34.57 34.218">
  <defs>
    <filter id="Path_67" x="5.53" y="0" width="29.04" height="34.218" filterUnits="userSpaceOnUse">
      <feOffset dy="3" input="SourceAlpha"/>
      <feGaussianBlur stdDeviation="3" result="blur"/>
      <feFlood flood-opacity="0.659"/>
      <feComposite operator="in" in2="blur"/>
      <feComposite in="SourceGraphic"/>
    </filter>
    <filter id="Path_68" x="0" y="5.164" width="22.142" height="28.362" filterUnits="userSpaceOnUse">
      <feOffset dy="3" input="SourceAlpha"/>
      <feGaussianBlur stdDeviation="3" result="blur-2"/>
      <feFlood flood-opacity="0.659"/>
      <feComposite operator="in" in2="blur-2"/>
      <feComposite in="SourceGraphic"/>
    </filter>
  </defs>
  <g id="PngItem_2973625" transform="translate(9 6)">
    <g transform="matrix(1, 0, 0, 1, -9, -6)" filter="url(#Path_67)">
      <path id="Path_67-2" data-name="Path 67" d="M331.474-959.5a.9.9,0,0,0-.117.171c-.054.091-.872,1.4-1.819,2.919s-1.753,2.816-1.79,2.891a.868.868,0,0,1-.193.257,1.447,1.447,0,0,0-.412.751c-.014.076-.017,1.068-.014,3.422l.005,3.313.039.118a1.4,1.4,0,0,0,1.219.982c.083.007,1.106.254,2.892.7l2.764.69.123-.015a1.386,1.386,0,0,0,.825-.4,1.4,1.4,0,0,0,.4-.881c.01-.1.24-.747,1.389-3.9l1.378-3.787-.01-.118a1.389,1.389,0,0,0-.83-1.146c-.267-.112-.01-.1-3.116-.113l-2.811-.009-.057-.13a.871.871,0,0,1-.107-.426l.007-.1.727-1.09a10.876,10.876,0,0,0,.8-1.263,2.677,2.677,0,0,0,.211-1.011,1.117,1.117,0,0,0-.1-.534,9.158,9.158,0,0,0-1.018-1.011,2.439,2.439,0,0,1-.216-.166C331.511-959.508,331.5-959.513,331.474-959.5Z" transform="translate(-312.6 965.51)" fill="#fff"/>
    </g>
    <g transform="matrix(1, 0, 0, 1, -9, -6)" filter="url(#Path_68)">
      <path id="Path_68-2" data-name="Path 68" d="M0-648.819v5.181H4.142V-654H0Zm2.2,3.12a.719.719,0,0,1,.492.385.473.473,0,0,1,.054.289.485.485,0,0,1-.054.291.691.691,0,0,1-.517.391.689.689,0,0,1-.727-.391.485.485,0,0,1-.054-.291.466.466,0,0,1,.056-.291.708.708,0,0,1,.468-.379A.533.533,0,0,1,2.2-645.7Z" transform="translate(9 665.16)" fill="#fff"/>
    </g>
  </g>
</svg>
