<svg xmlns="http://www.w3.org/2000/svg" width="23.563" height="23.08" viewBox="0 0 23.563 23.08">
  <g id="premium_icon" data-name="premium icon" transform="translate(-47.8 459.875)">
    <path id="Path_230" data-name="Path 230" d="M56.792-459.8c-.424.153-.651.362-1.154,1.075a5.994,5.994,0,0,1-.611.775,3.579,3.579,0,0,1-1.217.079c-1.211,0-1.251.011-1.675.379-.323.283-.458.622-.611,1.545-.175,1.047-.175,1.041-1.183,1.454-.832.34-1.149.572-1.381,1.03a2.258,2.258,0,0,0,.062,1.8,5.019,5.019,0,0,1,.2.82c0,.215-.13.407-.679,1.007a2,2,0,0,0-.747,1.5,2,2,0,0,0,.747,1.5c.538.589.679.792.679.99a7,7,0,0,1-.232.934c-.266.911-.266,1.239-.028,1.72.226.436.549.673,1.375,1.013,1.007.413,1.007.407,1.183,1.454.158.951.294,1.268.651,1.579.4.34.668.4,1.709.351.741-.028.928-.023,1.075.051a2.948,2.948,0,0,1,.679.8c.651.922,1,1.154,1.709,1.154.373-.006.577-.085,1.381-.532a2.605,2.605,0,0,1,.854-.373,2.605,2.605,0,0,1,.854.373c.373.209.77.407.888.453a1.808,1.808,0,0,0,1.517-.249,5.484,5.484,0,0,0,.7-.849,2.749,2.749,0,0,1,.662-.775,2.618,2.618,0,0,1,1.075-.051c1.03.045,1.307-.011,1.692-.34s.509-.639.668-1.584c.124-.724.164-.866.289-1a4.453,4.453,0,0,1,.934-.475,2.357,2.357,0,0,0,1.041-.594,1.383,1.383,0,0,0,.447-1.132,3.43,3.43,0,0,0-.209-1.1,5.655,5.655,0,0,1-.2-.821c0-.2.136-.407.679-1a2,2,0,0,0,.747-1.5,2,2,0,0,0-.747-1.5c-.538-.589-.679-.792-.679-.99a6.994,6.994,0,0,1,.232-.934,2.746,2.746,0,0,0,.2-1.1,1.537,1.537,0,0,0-.464-1.019,2.357,2.357,0,0,0-1.041-.594,4.451,4.451,0,0,1-.934-.475c-.124-.136-.164-.277-.289-1-.158-.951-.294-1.268-.651-1.579-.4-.34-.668-.4-1.709-.351-.741.028-.928.023-1.075-.051a2.949,2.949,0,0,1-.679-.8c-.685-.968-1.058-1.2-1.839-1.137a2.532,2.532,0,0,0-1.137.458,3.484,3.484,0,0,1-.968.43,2.691,2.691,0,0,1-.854-.373c-.373-.209-.77-.407-.888-.453A1.934,1.934,0,0,0,56.792-459.8Zm1.4,1.273a2.657,2.657,0,0,0,1.375.515,2.5,2.5,0,0,0,1.369-.492,3.868,3.868,0,0,1,.849-.4c.3-.04.515.147,1.041.888.487.69.8.962,1.228,1.075a5.667,5.667,0,0,0,1.149.023l.922-.04.209.192c.2.187.215.209.351,1.013.238,1.381.419,1.618,1.613,2.094.832.34.979.43,1.069.707.057.181.04.294-.17,1.03-.362,1.262-.3,1.664.385,2.4.77.837.8.888.8,1.177,0,.26-.017.289-.572.911-.679.764-.792.973-.832,1.466a3.053,3.053,0,0,0,.215,1.205c.345,1.205.323,1.245-.9,1.737-1.194.475-1.375.713-1.613,2.094-.136.8-.147.826-.345,1.007l-.2.187-1.058-.017-1.058-.017-.294.164c-.368.2-.453.294-.956,1.013-.464.668-.69.854-.985.815a3.869,3.869,0,0,1-.849-.4,2.553,2.553,0,0,0-1.358-.492,2.462,2.462,0,0,0-1.347.492,4.316,4.316,0,0,1-.854.4c-.306.04-.515-.142-1.047-.888-.487-.69-.8-.962-1.228-1.075a5.661,5.661,0,0,0-1.149-.023l-.922.04-.209-.192c-.2-.187-.215-.209-.351-1.013-.238-1.381-.419-1.618-1.613-2.094-.832-.334-.979-.43-1.069-.707-.057-.17-.034-.294.175-1.03a3.122,3.122,0,0,0,.209-1.205c-.04-.492-.153-.7-.832-1.466-.555-.622-.572-.651-.572-.911,0-.289.017-.317.832-1.205a1.874,1.874,0,0,0,.583-1.3,5.748,5.748,0,0,0-.232-1.1c-.334-1.183-.311-1.222.905-1.715,1.194-.475,1.375-.713,1.613-2.094.136-.8.147-.826.351-1.013l.209-.192.922.04a5.667,5.667,0,0,0,1.149-.023c.43-.113.741-.385,1.228-1.075.532-.747.741-.928,1.047-.888A4.037,4.037,0,0,1,58.2-458.53Z" fill="#fff"/>
    <path id="Path_231" data-name="Path 231" d="M118.545-400.73a8.153,8.153,0,0,0-4.81,2.371,8.119,8.119,0,0,0-2.275,4.216,11.43,11.43,0,0,0,0,3.169,8.119,8.119,0,0,0,2.275,4.216,8,8,0,0,0,4.108,2.247,10.79,10.79,0,0,0,3.276.028,8.119,8.119,0,0,0,4.216-2.275,8.119,8.119,0,0,0,2.275-4.216,11.431,11.431,0,0,0,0-3.169,8.119,8.119,0,0,0-2.275-4.216,8.144,8.144,0,0,0-4.159-2.263A15.852,15.852,0,0,0,118.545-400.73Zm2.184,1.019a7.281,7.281,0,0,1,6.049,7.153A7.262,7.262,0,0,1,120.7-385.4a7.261,7.261,0,0,1-8.409-7.158,7.262,7.262,0,0,1,6.027-7.153A8.6,8.6,0,0,1,120.729-399.712Z" transform="translate(-59.954 -55.779)" fill="#fff"/>
    <path id="Path_232" data-name="Path 232" d="M159.63-362.451a.672.672,0,0,0-.192.091c-.04.034-.419.764-.832,1.618s-.787,1.573-.815,1.59-.843.147-1.8.289c-1.952.277-1.992.294-1.992.713,0,.2.051.266,1.3,1.488l1.3,1.273-.283,1.641c-.153.9-.283,1.737-.283,1.85a.449.449,0,0,0,.458.441,12.372,12.372,0,0,0,1.72-.82l1.562-.826,1.556.826a12.835,12.835,0,0,0,1.715.82.448.448,0,0,0,.458-.453c0-.119-.13-.951-.283-1.85l-.283-1.63,1.3-1.273c1.251-1.222,1.3-1.285,1.3-1.488,0-.424-.04-.436-1.992-.719-.962-.136-1.766-.26-1.8-.283s-.39-.73-.809-1.584-.792-1.584-.837-1.618A.682.682,0,0,0,159.63-362.451Zm.792,2.852c.464.934.656,1.268.764,1.318a13.925,13.925,0,0,0,1.494.266l1.352.192-.99.962a14.689,14.689,0,0,0-1.058,1.092c-.057.1-.023.373.17,1.488a13.944,13.944,0,0,1,.2,1.392,11.667,11.667,0,0,1-1.228-.6,7.492,7.492,0,0,0-1.358-.628,7.493,7.493,0,0,0-1.358.628,11.665,11.665,0,0,1-1.228.6,13.955,13.955,0,0,1,.2-1.392c.192-1.115.226-1.386.17-1.488a14.689,14.689,0,0,0-1.058-1.092l-.99-.962,1.426-.209a12.615,12.615,0,0,0,1.505-.272,13.646,13.646,0,0,0,.685-1.307c.334-.679.622-1.239.645-1.239S160.083-360.289,160.423-359.6Z" transform="translate(-100.19 -91.903)" fill="#fff"/>
  </g>
</svg>
