<svg xmlns="http://www.w3.org/2000/svg" width="105.947" height="106.333" viewBox="0 0 105.947 106.333">
  <g id="price-tag" transform="translate(-1 511.869)">
    <path id="Path_200" data-name="Path 200" d="M87.439-511.667C81-510.4,74.58-505.311,69.324-497.292a91.323,91.323,0,0,0-6,11.509l-.893,2.14h-9.12c-7.354,0-9.244.062-9.784.291-.395.166-9.369,8.995-21.6,21.251L1-441.162v1.87L17.889-422.4l16.868,16.868h1.87l20.94-20.94c11.779-11.737,21.064-21.189,21.21-21.542.249-.6.166-4.736-.353-18.862l-.083-2.43h.5a63.055,63.055,0,0,0,9.514-3.282c10.054-4.508,16.557-11.218,18.26-18.883a22,22,0,0,0-.083-8.081,17.247,17.247,0,0,0-5.36-8.725,18.182,18.182,0,0,0-6.627-3.282A25.464,25.464,0,0,0,87.439-511.667Zm6.627,4.4a12.438,12.438,0,0,1,7.354,6.211,12.394,12.394,0,0,1,1.288,6.419c-.582,8.6-8.85,16.2-22.29,20.462l-2.119.665-.1-1.08c-.062-.582-.145-2.534-.187-4.321-.1-3.552-.27-4.134-1.309-4.529a35.8,35.8,0,0,0-5.069-.208H67.081l.727-1.7c6.066-14.168,15.123-22.747,23.557-22.29A14.78,14.78,0,0,1,94.066-507.263ZM60.828-479.2c-.1.27-.665,2.1-1.246,4.072a29.065,29.065,0,0,1-1.579,4.3,5.444,5.444,0,0,0-.852,3.615,5.284,5.284,0,0,0,5.152,4.923A3.969,3.969,0,0,0,64.8-462.7a5.172,5.172,0,0,0,3.3-5.069,5.3,5.3,0,0,0-3.573-5.235c-1.143-.395-1.163-.083.145-3.988l.872-2.6,4.279-.062c3.989-.042,4.3-.021,4.3.312,0,.208.229,6.959.519,15.019l.5,14.645L55.406-429.944,35.692-410.209l-15-15.019-15.019-15,19.735-19.735L45.144-479.7H61.036Z" fill="#2b2b2b"/>
    <path id="Path_201" data-name="Path 201" d="M135.945-271.354a9.692,9.692,0,0,0-7.125,6.461c-.789,2.6-.353,5.235,1.7,10.345,1.475,3.718,1.475,4.778-.021,6.481a3.068,3.068,0,0,1-2.929,1.35,3.773,3.773,0,0,1-2.784-2.327,2.54,2.54,0,0,1-.415-1.911,6.1,6.1,0,0,1,1.371-2.784l.582-.727-2.8-2.8-2.8-2.784-.831.935a12.891,12.891,0,0,0-2.472,4.757,11.121,11.121,0,0,0,1.87,8.413l.789,1.122-1.537,1.516A10.228,10.228,0,0,0,117-241.586a11.5,11.5,0,0,0,2.6,2.617,9.96,9.96,0,0,0,1.745-1.537l1.516-1.516,1.267.852a8.922,8.922,0,0,0,12.028-1.288,8.334,8.334,0,0,0,2.431-4.8c.374-2.347-.062-4.321-2.244-10.408-.665-1.849-.831-3.428-.415-4.217a6.88,6.88,0,0,1,2.1-2.14,3.211,3.211,0,0,1,2.659.021,3.452,3.452,0,0,1,1.662,2.659,5.526,5.526,0,0,1-1.433,3.137,1.3,1.3,0,0,0-.436.623,51.211,51.211,0,0,0,5.5,5.526,11.29,11.29,0,0,0,2.347-3.012,10.154,10.154,0,0,0-.1-9.307,18.677,18.677,0,0,0-4.84-5.152A10.4,10.4,0,0,0,135.945-271.354Z" transform="translate(-91.903 -190.456)" fill="#2b2b2b"/>
  </g>
</svg>
