<svg xmlns="http://www.w3.org/2000/svg" width="89.216" height="89.541" viewBox="0 0 89.216 89.541">
  <g id="price-tag" transform="translate(0 0)">
    <path id="Path_200" data-name="Path 200" d="M73.789-511.7c-5.423,1.067-10.828,5.353-15.254,12.105a76.9,76.9,0,0,0-5.055,9.691l-.752,1.8H45.047c-6.193,0-7.784.052-8.239.245-.332.14-7.889,7.574-18.193,17.9L1-452.328v1.574l14.222,14.222,14.2,14.2H31L48.634-439.96c9.919-9.884,17.738-17.843,17.86-18.14.21-.507.14-3.988-.3-15.884l-.07-2.047h.42a53.1,53.1,0,0,0,8.012-2.764c8.467-3.8,13.942-9.446,15.376-15.9a18.522,18.522,0,0,0-.07-6.8,14.524,14.524,0,0,0-4.513-7.347,15.311,15.311,0,0,0-5.58-2.764A21.442,21.442,0,0,0,73.789-511.7Zm5.58,3.709a10.474,10.474,0,0,1,6.193,5.23,10.436,10.436,0,0,1,1.085,5.405c-.49,7.242-7.452,13.645-18.77,17.231l-1.784.56-.087-.91c-.052-.49-.122-2.134-.157-3.639-.087-2.991-.227-3.481-1.1-3.814a30.145,30.145,0,0,0-4.268-.175H56.645l.612-1.434c5.108-11.93,12.735-19.155,19.837-18.77A12.448,12.448,0,0,1,79.369-507.991ZM51.38-484.358c-.087.227-.56,1.767-1.05,3.429A24.475,24.475,0,0,1,49-477.308a4.585,4.585,0,0,0-.717,3.044,4.449,4.449,0,0,0,4.338,4.146,3.342,3.342,0,0,0,2.1-.35,4.356,4.356,0,0,0,2.781-4.268,4.46,4.46,0,0,0-3.009-4.408c-.962-.332-.98-.07.122-3.359l.735-2.187,3.6-.052c3.359-.035,3.621-.017,3.621.262,0,.175.192,5.86.437,12.647l.42,12.333L46.814-442.882l-16.6,16.618-12.63-12.647L4.936-451.541l16.618-16.618,16.618-16.618H51.555Z" transform="translate(-1 511.869)" fill="#fff"/>
    <path id="Path_201" data-name="Path 201" d="M132.954-271.373a8.161,8.161,0,0,0-6,5.44c-.665,2.187-.3,4.408,1.434,8.712,1.242,3.131,1.242,4.023-.018,5.458a2.584,2.584,0,0,1-2.466,1.137,3.177,3.177,0,0,1-2.344-1.959,2.139,2.139,0,0,1-.35-1.609,5.137,5.137,0,0,1,1.155-2.344l.49-.612-2.362-2.362-2.362-2.344-.7.787a10.855,10.855,0,0,0-2.082,4.006,9.365,9.365,0,0,0,1.574,7.085l.665.945-1.294,1.277A8.614,8.614,0,0,0,117-246.306a9.685,9.685,0,0,0,2.187,2.2,8.387,8.387,0,0,0,1.469-1.294l1.277-1.277,1.067.717a7.513,7.513,0,0,0,10.128-1.085,7.018,7.018,0,0,0,2.047-4.041c.315-1.977-.052-3.639-1.889-8.764-.56-1.557-.7-2.886-.35-3.551a5.793,5.793,0,0,1,1.767-1.8,2.7,2.7,0,0,1,2.239.017,2.907,2.907,0,0,1,1.4,2.239,4.653,4.653,0,0,1-1.207,2.641,1.091,1.091,0,0,0-.367.525,43.121,43.121,0,0,0,4.636,4.653,9.507,9.507,0,0,0,1.977-2.536,8.55,8.55,0,0,0-.087-7.837,15.727,15.727,0,0,0-4.076-4.338A8.757,8.757,0,0,0,132.954-271.373Z" transform="translate(-96.708 313.526)" fill="#fff"/>
  </g>
</svg>
