<svg xmlns="http://www.w3.org/2000/svg" xmlns:xlink="http://www.w3.org/1999/xlink" width="32.533" height="32.533" viewBox="0 0 32.533 32.533">
  <defs>
    <clipPath id="clip-path">
      <rect id="Rectangle_2168" data-name="Rectangle 2168" width="23.004" height="23.004" transform="translate(16.267) rotate(45)" fill="#fff"/>
    </clipPath>
  </defs>
  <g id="Group_324" data-name="Group 324" clip-path="url(#clip-path)">
    <path id="Path_191" data-name="Path 191" d="M42.336,28.842a1.608,1.608,0,0,0-.764-1.374l-.007,0-15.9-9.648a3.855,3.855,0,0,0-4.737.571l-1.686,1.686a1.62,1.62,0,0,0-.048,2.237l3.987,5.623a.449.449,0,0,0,.366.189H34.874a.719.719,0,1,1,0,1.438H23.548a.449.449,0,0,0-.366.189l-3.987,5.623a1.62,1.62,0,0,0,.048,2.237L20.929,39.3a3.855,3.855,0,0,0,4.737.571l15.9-9.648.007,0A1.607,1.607,0,0,0,42.336,28.842Z" transform="translate(-10.474 -12.576)" fill="#f2f2f2"/>
  </g>
</svg>
