<svg id="share-button" xmlns="http://www.w3.org/2000/svg" width="25.526" height="28.378" viewBox="0 0 25.526 28.378">
  <g id="share-alt">
    <path id="Path_198" data-name="Path 198" d="M46.891,9.982a3.982,3.982,0,0,0-2.852,1.141L33.914,5.276a2.427,2.427,0,0,0,.143-1,4.278,4.278,0,0,0-8.556,0,4.2,4.2,0,0,0,4.278,4.278A3.982,3.982,0,0,0,32.63,7.415l10.125,5.847a2.427,2.427,0,0,0-.143,1,2.427,2.427,0,0,0,.143,1L32.63,21.248a3.982,3.982,0,0,0-2.852-1.141,4.136,4.136,0,1,0,4.136,4.136,2.784,2.784,0,0,0-.143-1L43.9,17.255A3.982,3.982,0,0,0,46.748,18.4a4.2,4.2,0,0,0,4.278-4.278A3.968,3.968,0,0,0,46.891,9.982Z" transform="translate(-25.5)" fill="#fff"/>
  </g>
</svg>



