<svg id="icons8-sparkling-96" xmlns="http://www.w3.org/2000/svg" xmlns:xlink="http://www.w3.org/1999/xlink" width="22.676" height="20.786" viewBox="0 0 22.676 20.786">
  <defs>
    <linearGradient id="linear-gradient" x1="0.5" x2="0.5" y2="1" gradientUnits="objectBoundingBox">
      <stop offset="0" stop-color="#00ebd3"/>
      <stop offset="1" stop-color="#007380"/>
    </linearGradient>
  </defs>
  <path id="Path_203" data-name="Path 203" d="M4.512-90.3a12.623,12.623,0,0,1-.756,1.984,9.08,9.08,0,0,1-1.984.8A6.413,6.413,0,0,0,0-86.8a6.412,6.412,0,0,0,1.772.709,9.08,9.08,0,0,1,1.984.8,13.022,13.022,0,0,1,.756,1.96A7.556,7.556,0,0,0,5.2-81.607a7.556,7.556,0,0,0,.685-1.724,13.022,13.022,0,0,1,.756-1.96,9.08,9.08,0,0,1,1.984-.8,6.412,6.412,0,0,0,1.772-.709,6.413,6.413,0,0,0-1.772-.709,9.08,9.08,0,0,1-1.984-.8A12.624,12.624,0,0,1,5.881-90.3,7.658,7.658,0,0,0,5.2-92,7.658,7.658,0,0,0,4.512-90.3Z" transform="translate(0 92)" fill="url(#linear-gradient)"/>
  <path id="Path_204" data-name="Path 204" d="M34.708-73.213l-1.134,2.787-2.787,1.134A16.052,16.052,0,0,0,28-67.969a16.05,16.05,0,0,0,2.787,1.323l2.787,1.134,1.134,2.787a16.05,16.05,0,0,0,1.323,2.787,16.051,16.051,0,0,0,1.323-2.787l1.134-2.787,2.787-1.134a16.05,16.05,0,0,0,2.787-1.323,16.052,16.052,0,0,0-2.787-1.323l-2.787-1.134-1.134-2.787A16.051,16.051,0,0,0,36.031-76,16.05,16.05,0,0,0,34.708-73.213Z" transform="translate(-21.386 79.779)" fill="url(#linear-gradient)"/>
  <path id="Path_205" data-name="Path 205" d="M10.834-30.937c-.354,1.228-.5,1.394-1.819,1.8C8.449-29,8-28.788,8-28.693s.472.307,1.063.472c1.228.354,1.394.5,1.8,1.819.142.567.354,1.016.449,1.016s.307-.449.449-1.016c.4-1.323.567-1.464,1.8-1.819.591-.165,1.063-.378,1.063-.472s-.472-.307-1.063-.472c-1.228-.354-1.394-.5-1.8-1.842-.142-.543-.354-.992-.449-.992S11-31.528,10.834-30.937Z" transform="translate(-6.111 46.172)" fill="url(#linear-gradient)"/>
</svg>
