<svg xmlns="http://www.w3.org/2000/svg" xmlns:xlink="http://www.w3.org/1999/xlink" width="16.854" height="15.449" viewBox="0 0 16.854 15.449">
  <defs>
    <linearGradient id="linear-gradient" x1="0.5" x2="0.5" y2="1" gradientUnits="objectBoundingBox">
      <stop offset="0" stop-color="#00ebd3"/>
      <stop offset="1" stop-color="#007380"/>
    </linearGradient>
  </defs>
  <g id="icons8-sparkling-96" transform="translate(0 0)">
    <path id="Path_203" data-name="Path 203" d="M3.353-90.736a9.382,9.382,0,0,1-.562,1.475,6.749,6.749,0,0,1-1.475.6A4.767,4.767,0,0,0,0-88.138a4.766,4.766,0,0,0,1.317.527,6.749,6.749,0,0,1,1.475.6,9.678,9.678,0,0,1,.562,1.457,5.616,5.616,0,0,0,.509,1.282,5.616,5.616,0,0,0,.509-1.282,9.678,9.678,0,0,1,.562-1.457,6.749,6.749,0,0,1,1.475-.6,4.766,4.766,0,0,0,1.317-.527,4.767,4.767,0,0,0-1.317-.527,6.749,6.749,0,0,1-1.475-.6,9.382,9.382,0,0,1-.562-1.475A5.692,5.692,0,0,0,3.862-92,5.692,5.692,0,0,0,3.353-90.736Z" transform="translate(0 92)" fill="url(#linear-gradient)"/>
    <path id="Path_204" data-name="Path 204" d="M32.986-73.928l-.843,2.072-2.072.843A11.929,11.929,0,0,0,28-70.031a11.93,11.93,0,0,0,2.072.983l2.072.843.843,2.072a11.929,11.929,0,0,0,.983,2.072,11.93,11.93,0,0,0,.983-2.072l.843-2.072,2.072-.843a11.93,11.93,0,0,0,2.072-.983,11.929,11.929,0,0,0-2.072-.983l-2.072-.843-.843-2.072A11.93,11.93,0,0,0,33.969-76,11.929,11.929,0,0,0,32.986-73.928Z" transform="translate(-23.084 78.809)" fill="url(#linear-gradient)"/>
    <path id="Path_205" data-name="Path 205" d="M10.107-31.21c-.263.913-.369,1.036-1.352,1.334-.421.105-.755.263-.755.334s.351.228.79.351c.913.263,1.036.369,1.334,1.352.105.421.263.755.334.755s.228-.334.334-.755c.3-.983.421-1.088,1.334-1.352.439-.123.79-.281.79-.351s-.351-.228-.79-.351c-.913-.263-1.036-.369-1.334-1.369-.105-.4-.263-.737-.334-.737S10.23-31.649,10.107-31.21Z" transform="translate(-6.596 42.533)" fill="url(#linear-gradient)"/>
  </g>
</svg>
