<svg xmlns="http://www.w3.org/2000/svg" width="123.754" height="20" viewBox="0 0 123.754 20">
  <g id="Group_313" data-name="Group 313" transform="translate(-125.319 -252)">
    <path id="star" d="M39.789,29.942l3.249,6.584,4.465.649,2.8.407-5.258,5.125,1.241,7.236-6.5-3.416-6.5,3.416,1.241-7.236-5.258-5.125,7.266-1.056Z" transform="translate(96.045 222.058)" fill="#878787"/>
    <path id="star-2" data-name="star" d="M39.789,29.942l3.249,6.584,4.465.649,2.8.407-5.258,5.125,1.241,7.236-6.5-3.416-6.5,3.416,1.241-7.236-5.258-5.125,7.266-1.056Z" transform="translate(121.726 222.058)" fill="#878787"/>
    <path id="star-3" data-name="star" d="M39.789,29.942l3.249,6.584,4.465.649,2.8.407-5.258,5.125,1.241,7.236-6.5-3.416-6.5,3.416,1.241-7.236-5.258-5.125,7.266-1.056Z" transform="translate(147.407 222.058)" fill="#878787"/>
    <path id="star-4" data-name="star" d="M39.789,29.942l3.249,6.584,4.465.649,2.8.407-5.258,5.125,1.241,7.236-6.5-3.416-6.5,3.416,1.241-7.236-5.258-5.125,7.266-1.056Z" transform="translate(173.088 222.058)" fill="#878787"/>
    <path id="star-5" data-name="star" d="M39.789,29.942l3.249,6.584,4.465.649,2.8.407-5.258,5.125,1.241,7.236-6.5-3.416-6.5,3.416,1.241-7.236-5.258-5.125,7.266-1.056Z" transform="translate(198.77 222.058)" fill="#878787"/>
  </g>
</svg>
