<svg xmlns="http://www.w3.org/2000/svg" width="38.765" height="34.585" viewBox="0 0 38.765 34.585">
  <g id="Group_494" data-name="Group 494" transform="translate(-161 -300.02)">
    <path id="Path_197" data-name="Path 197" d="M37.164,38.082a4.066,4.066,0,0,0,3.518-6.1L25.369,5.525a4.065,4.065,0,0,0-7.036,0L3.021,31.981a4.066,4.066,0,0,0,3.518,6.1ZM21.851,23.847a2.04,2.04,0,0,1-2.034-2.034V17.746a2.034,2.034,0,1,1,4.067,0v4.067A2.04,2.04,0,0,1,21.851,23.847Zm-2.034,4.067v4.067h4.067V27.914Z" transform="translate(158.531 296.523)" fill="#f2f2f2" fill-rule="evenodd"/>
  </g>
</svg>